<svg width="857" height="162" viewBox="0 0 857 162" fill="none" xmlns="http://www.w3.org/2000/svg">
<line x1="463.5" y1="162" x2="463.5" stroke="#E8E3D5" stroke-dasharray="5 5"/>
<line x1="379.5" y1="162" x2="379.5" stroke="#E8E3D5" stroke-dasharray="5 5"/>
<line x1="1" y1="37.5" x2="857" y2="37.5" stroke="#E8E3D5" stroke-dasharray="5 5"/>
<line x1="380" y1="65.5" x2="464" y2="65.5" stroke="#E8E3D5" stroke-dasharray="5 5"/>
<line x1="1" y1="121.5" x2="857" y2="121.5" stroke="#E8E3D5" stroke-dasharray="5 5"/>
<line x1="379" y1="94.5" x2="464" y2="94.5" stroke="#E8E3D5" stroke-dasharray="5 5"/>
<path d="M464 122.04V38H497.329C514.827 38 525.063 48.8051 525.063 64.0523C525.063 79.2994 514.827 90.1045 497.329 90.1045H479.712V122.04H464ZM479.712 76.7783H496.615C505.899 76.7783 509.708 70.7754 509.708 64.0523C509.708 57.3291 505.899 51.3263 496.615 51.3263H479.712V76.7783Z" fill="#E8E3D5"/>
<path d="M545.751 123C533.966 123 525.872 115.316 525.872 104.871C525.872 93.1059 534.8 85.7825 548.369 85.7825H559.439C562.296 85.7825 563.724 84.1017 563.724 81.7006C563.724 75.8178 559.32 71.6158 551.583 71.6158C543.846 71.6158 539.204 76.5381 538.966 81.9407H525.753C526.587 69.935 536.704 60.5706 552.178 60.5706C567.533 60.5706 578.246 69.4548 578.246 83.1412V122.04H563.724V113.035C561.344 119.038 554.321 123 545.751 123ZM540.037 104.271C540.037 108.953 543.727 112.075 549.203 112.075C558.368 112.075 563.724 105.592 563.724 96.4675V95.5071H550.274C544.084 95.5071 540.037 98.9887 540.037 104.271Z" fill="#E8E3D5"/>
<path d="M627.3 38H641.822V61.5311H658.606V73.8969H641.822V100.309C641.822 106.432 645.155 109.554 650.631 109.554H658.606V122.04H648.964C635.871 122.04 627.3 114.356 627.3 100.91V38ZM587.544 122.04V61.5311H602.185V72.2161C605.161 64.5325 609.803 61.5311 617.54 61.5311H622.42V73.8969H615.159C605.756 73.8969 602.185 81.9407 602.185 93.4661V122.04H587.544Z" fill="#E8E3D5"/>
<path d="M664.152 122.04V61.5311H678.793V70.8955C682.007 64.2924 688.911 60.5706 697.481 60.5706C710.931 60.5706 719.74 70.4153 719.74 84.5819V122.04H705.218V87.7034C705.218 79.4195 700.099 73.6568 692.6 73.6568C684.506 73.6568 678.793 80.1398 678.793 89.024V122.04H664.152Z" fill="#E8E3D5"/>
<path d="M756.156 123C736.516 123 725.565 107.393 725.565 91.5452C725.565 75.5777 735.325 60.5706 754.966 60.5706C775.082 60.5706 784.128 75.3376 784.128 89.7443C784.128 91.7853 784.009 93.5862 783.89 94.7867H739.611C740.682 104.511 746.872 110.754 756.156 110.754C763.655 110.754 768.535 107.633 770.083 101.87H784.367C782.105 114.716 770.916 123 756.156 123ZM739.968 85.0621H769.488C768.892 77.3785 763.655 71.6158 754.966 71.6158C746.753 71.6158 741.515 75.9379 739.968 85.0621Z" fill="#E8E3D5"/>
<path d="M818.597 73.8969C809.193 73.8969 805.622 81.9407 805.622 93.4661V122.04H790.981V61.5311H805.622V72.2161C808.598 64.5325 813.24 61.5311 820.977 61.5311H828V73.8969H818.597Z" fill="#E8E3D5"/>
<g opacity="0.5">
<path d="M139.557 121.736C146.998 121.736 153.01 127.626 153.01 134.865C153.01 142.105 146.997 147.993 139.557 147.993C132.116 147.993 126.104 142.105 126.104 134.865C126.104 127.626 132.116 121.736 139.557 121.736Z" stroke="#BBEBE1"/>
<circle cx="139.557" cy="107.284" r="13.453" stroke="#BBEBE1"/>
<circle cx="139.557" cy="79.3778" r="13.453" stroke="#BBEBE1"/>
<circle cx="139.557" cy="51.4715" r="13.453" stroke="#BBEBE1"/>
<circle cx="139.557" cy="23.5655" r="13.453" stroke="#BBEBE1"/>
</g>
<circle opacity="0.5" cx="394" cy="80" r="13.5" stroke="#BBEBE1"/>
<circle opacity="0.5" cx="450" cy="80" r="13.5" stroke="#BBEBE1"/>
<circle opacity="0.5" cx="422" cy="80" r="13.5" stroke="#BBEBE1"/>
<path d="M348.398 107.677C358.226 107.677 363.202 101.457 363.202 89.0172C363.202 76.5771 358.226 70.4808 348.398 70.4808C338.57 70.4808 333.595 76.5771 333.595 89.0172C333.595 101.457 338.572 107.677 348.398 107.677ZM348.398 121.237C328.618 121.237 316.925 108.051 316.925 89.0172C316.925 69.9838 328.992 56.7974 348.398 56.7974C367.804 56.7974 379.496 69.4869 379.496 89.0172C379.496 108.547 367.431 121.237 348.398 121.237Z" fill="#E8E3D5"/>
<path d="M314.797 121.233H298.625V37.6362H314.797V121.233Z" fill="#E8E3D5"/>
<path d="M280.199 96.3585L280.323 89.6415C278.707 91.2579 275.845 92.1299 269.875 93.2494C260.669 94.9914 257.684 97.6036 257.684 102.828C257.684 107.432 260.42 109.671 265.52 109.671C273.856 109.671 280.076 103.574 280.199 96.3603V96.3585ZM296.495 121.237H280.447C280.447 119.839 280.573 116.013 280.447 114.147C276.59 118.375 270.122 121.237 261.913 121.237C247.98 121.237 241.511 114.394 241.511 104.443C241.511 86.7782 253.328 84.7867 269.625 82.5477C277.711 81.4282 279.95 79.8118 279.95 75.5813C279.95 71.6003 275.969 69.2375 269.625 69.2375C262.286 69.2375 259.301 72.8454 258.554 78.3191H243.502C243.751 65.6296 250.718 56.7974 270.372 56.7974C290.025 56.7974 296.495 65.5058 296.495 80.9313V119.619V121.237Z" fill="#E8E3D5"/>
<path d="M239.383 121.233H223.212V60.0281H239.383V121.233ZM239.383 52.6885H223.212V37.6362H239.383V52.6885Z" fill="#E8E3D5"/>
<path d="M192.846 52.889H170.578V74.9077H192.223C201.429 74.9077 204.913 70.3059 204.913 63.9603C204.913 57.6146 201.43 52.889 192.846 52.889ZM218.844 121.184H201.926V99.9118C201.926 91.9496 198.94 88.8405 188.989 88.8405H170.578V121.184H153.784V37.5186H195.706C211.007 37.5186 221.083 48.7842 221.083 62.4676C221.083 71.2998 216.728 78.7632 208.766 81.6247C216.106 83.9875 218.842 88.0942 218.842 97.7965V121.184H218.844Z" fill="#E8E3D5"/>
<path d="M84.4877 93.6365C80.6995 93.4233 76.5398 91.9656 74.0071 89.0982C70.4849 85.2692 69.2381 79.0471 71.3741 74.2173C74.7804 66.5154 80.9781 64.9472 87.5126 65.4041C92.3819 65.4041 103.259 65.5259 108.921 65.5259C110.774 65.4998 112.396 65.6129 114.048 65.4041C117.854 65.0038 121.44 62.5153 123.476 59.1824C127.347 53.3257 125.852 44.6945 120.425 40.7461C118.093 39.0491 115.29 38.279 112.418 38.0614C110.983 37.9178 109.54 37.7568 108.18 37.3435C103.878 36.0599 100.42 32.3721 99.0028 28.1428C98.2269 25.9411 98.2574 23.5523 97.8607 21.2723C96.9453 15.7811 92.695 11.5692 87.1718 10.3204C85.912 10.0245 84.7176 9.80699 83.5493 9.79829C70.1621 9.75478 48.5952 9.62859 43.5559 9.61554C36.8645 9.4763 30.4738 14.2104 29.3012 20.9024C27.9367 27.39 31.8644 34.3257 38.0676 36.5057C40.2603 37.3237 42.0476 37.5021 44.4365 37.476C51.7513 37.5456 51.2909 37.7196 55.297 37.7588C60.4497 37.5935 66.0513 40.0997 68.5404 44.6945C73.9764 54.7239 66.2431 65.406 55.1663 65.0144C41.4651 65.0449 35.4697 64.997 19.0266 65.0101C16.1975 65.0318 14.0178 64.8491 11.3369 65.567C3.62538 67.3771 -1.06081 76.2709 1.81193 83.6765C3.5382 88.5585 8.11105 92.083 13.2724 92.7139C19.7154 93.1316 31.9751 92.7617 48.2438 92.8792C51.9884 92.8792 54.7303 92.8792 55.8201 92.8792C56.8707 92.8705 57.8559 92.9924 58.9893 93.2186C65.9031 94.3804 70.6241 101.107 70.2275 107.925C70.2275 112.525 70.2275 126.609 70.2275 133.628C70.2144 136.156 70.6677 138.758 71.9755 141.216C75.7201 148.504 85.8161 150.828 92.4029 145.841C97.3812 142.191 98.4579 136.878 98.1746 131.122C98.1659 125.269 98.1833 115.279 98.1746 108.8C98.7369 100.198 92.7209 93.897 84.5792 93.6539L84.492 93.6452L84.4877 93.6365Z" fill="#BBEBE1"/>
<path d="M412.025 89.9351C410.658 88.5683 410.658 86.3522 412.025 84.9854L426.985 70.0251C428.352 68.6583 430.568 68.6583 431.935 70.0251C433.302 71.392 433.302 73.608 431.935 74.9749L416.975 89.9351C415.608 91.302 413.392 91.302 412.025 89.9351Z" fill="#BBEBE1"/>
<path d="M432.075 89.9351C433.442 88.5683 433.442 86.3522 432.075 84.9854L417.115 70.0251C415.748 68.6583 413.532 68.6583 412.165 70.0251C410.799 71.392 410.799 73.608 412.165 74.9749L427.126 89.9351C428.492 91.302 430.709 91.302 432.075 89.9351Z" fill="#BBEBE1"/>
</svg>
